<mxfile host="app.diagrams.net" agent="Mozilla/5.0 (Windows NT 10.0; Win64; x64; rv:131.0) Gecko/20100101 Firefox/131.0" version="24.7.17">
  <diagram name="Stránka-1" id="60cGd73hUEykM676Yyhl">
    <mxGraphModel dx="724" dy="385" grid="1" gridSize="10" guides="1" tooltips="1" connect="1" arrows="1" fold="1" page="1" pageScale="1" pageWidth="827" pageHeight="1169" math="0" shadow="0">
      <root>
        <mxCell id="0" />
        <mxCell id="1" parent="0" />
        <mxCell id="B4AsiJpTMyrp320nneSC-3" value="" style="edgeStyle=orthogonalEdgeStyle;rounded=0;orthogonalLoop=1;jettySize=auto;html=1;" edge="1" parent="1" source="B4AsiJpTMyrp320nneSC-1" target="B4AsiJpTMyrp320nneSC-2">
          <mxGeometry relative="1" as="geometry" />
        </mxCell>
        <mxCell id="B4AsiJpTMyrp320nneSC-1" value="Bubble sort" style="strokeWidth=2;html=1;shape=mxgraph.flowchart.start_1;whiteSpace=wrap;" vertex="1" parent="1">
          <mxGeometry x="280" y="190" width="100" height="60" as="geometry" />
        </mxCell>
        <mxCell id="B4AsiJpTMyrp320nneSC-7" value="" style="edgeStyle=orthogonalEdgeStyle;rounded=0;orthogonalLoop=1;jettySize=auto;html=1;" edge="1" parent="1" source="B4AsiJpTMyrp320nneSC-2" target="B4AsiJpTMyrp320nneSC-6">
          <mxGeometry relative="1" as="geometry" />
        </mxCell>
        <mxCell id="B4AsiJpTMyrp320nneSC-2" value="P = pole čísel" style="shape=parallelogram;perimeter=parallelogramPerimeter;whiteSpace=wrap;html=1;fixedSize=1;strokeWidth=2;" vertex="1" parent="1">
          <mxGeometry x="280" y="260" width="100" height="30" as="geometry" />
        </mxCell>
        <mxCell id="B4AsiJpTMyrp320nneSC-24" value="" style="edgeStyle=orthogonalEdgeStyle;rounded=0;orthogonalLoop=1;jettySize=auto;html=1;" edge="1" parent="1" source="B4AsiJpTMyrp320nneSC-4" target="B4AsiJpTMyrp320nneSC-13">
          <mxGeometry relative="1" as="geometry" />
        </mxCell>
        <mxCell id="B4AsiJpTMyrp320nneSC-26" value="" style="edgeStyle=orthogonalEdgeStyle;rounded=0;orthogonalLoop=1;jettySize=auto;html=1;" edge="1" parent="1" source="B4AsiJpTMyrp320nneSC-4" target="B4AsiJpTMyrp320nneSC-25">
          <mxGeometry relative="1" as="geometry" />
        </mxCell>
        <mxCell id="B4AsiJpTMyrp320nneSC-4" value="Opakuj N krát" style="strokeWidth=2;html=1;shape=mxgraph.flowchart.loop_limit;whiteSpace=wrap;" vertex="1" parent="1">
          <mxGeometry x="280" y="350" width="100" height="60" as="geometry" />
        </mxCell>
        <mxCell id="B4AsiJpTMyrp320nneSC-28" value="" style="edgeStyle=orthogonalEdgeStyle;rounded=0;orthogonalLoop=1;jettySize=auto;html=1;" edge="1" parent="1" source="B4AsiJpTMyrp320nneSC-6" target="B4AsiJpTMyrp320nneSC-4">
          <mxGeometry relative="1" as="geometry" />
        </mxCell>
        <mxCell id="B4AsiJpTMyrp320nneSC-6" value="N = délka P" style="rounded=1;whiteSpace=wrap;html=1;absoluteArcSize=1;arcSize=14;strokeWidth=2;" vertex="1" parent="1">
          <mxGeometry x="285" y="300" width="90" height="30" as="geometry" />
        </mxCell>
        <mxCell id="B4AsiJpTMyrp320nneSC-12" value="" style="edgeStyle=orthogonalEdgeStyle;rounded=0;orthogonalLoop=1;jettySize=auto;html=1;" edge="1" parent="1" source="B4AsiJpTMyrp320nneSC-10" target="B4AsiJpTMyrp320nneSC-11">
          <mxGeometry relative="1" as="geometry" />
        </mxCell>
        <mxCell id="B4AsiJpTMyrp320nneSC-21" value="Ano" style="edgeLabel;html=1;align=center;verticalAlign=middle;resizable=0;points=[];" vertex="1" connectable="0" parent="B4AsiJpTMyrp320nneSC-12">
          <mxGeometry x="-0.6468" y="-1" relative="1" as="geometry">
            <mxPoint as="offset" />
          </mxGeometry>
        </mxCell>
        <mxCell id="B4AsiJpTMyrp320nneSC-19" value="" style="edgeStyle=orthogonalEdgeStyle;rounded=0;orthogonalLoop=1;jettySize=auto;html=1;" edge="1" parent="1" source="B4AsiJpTMyrp320nneSC-10" target="B4AsiJpTMyrp320nneSC-17">
          <mxGeometry relative="1" as="geometry" />
        </mxCell>
        <mxCell id="B4AsiJpTMyrp320nneSC-22" value="Ne" style="edgeLabel;html=1;align=right;verticalAlign=middle;resizable=0;points=[];" vertex="1" connectable="0" parent="B4AsiJpTMyrp320nneSC-19">
          <mxGeometry x="0.207" y="-1" relative="1" as="geometry">
            <mxPoint as="offset" />
          </mxGeometry>
        </mxCell>
        <mxCell id="B4AsiJpTMyrp320nneSC-10" value="A &amp;lt; B" style="strokeWidth=2;html=1;shape=mxgraph.flowchart.decision;whiteSpace=wrap;" vertex="1" parent="1">
          <mxGeometry x="301.25" y="522.25" width="57.5" height="40" as="geometry" />
        </mxCell>
        <mxCell id="B4AsiJpTMyrp320nneSC-18" value="" style="edgeStyle=orthogonalEdgeStyle;rounded=0;orthogonalLoop=1;jettySize=auto;html=1;" edge="1" parent="1" source="B4AsiJpTMyrp320nneSC-11" target="B4AsiJpTMyrp320nneSC-17">
          <mxGeometry relative="1" as="geometry" />
        </mxCell>
        <mxCell id="B4AsiJpTMyrp320nneSC-11" value="Prohoď A a B" style="rounded=1;whiteSpace=wrap;html=1;absoluteArcSize=1;arcSize=14;strokeWidth=2;" vertex="1" parent="1">
          <mxGeometry x="291.25" y="592.25" width="77.5" height="25.5" as="geometry" />
        </mxCell>
        <mxCell id="B4AsiJpTMyrp320nneSC-15" value="" style="edgeStyle=orthogonalEdgeStyle;rounded=0;orthogonalLoop=1;jettySize=auto;html=1;entryX=0.5;entryY=0;entryDx=0;entryDy=0;entryPerimeter=0;" edge="1" parent="1" source="B4AsiJpTMyrp320nneSC-13" target="B4AsiJpTMyrp320nneSC-10">
          <mxGeometry relative="1" as="geometry" />
        </mxCell>
        <mxCell id="B4AsiJpTMyrp320nneSC-13" value="A, B = postupně všechny dvojice prvků, které jsou vedle sebe" style="strokeWidth=2;html=1;shape=mxgraph.flowchart.loop_limit;whiteSpace=wrap;" vertex="1" parent="1">
          <mxGeometry x="275" y="430" width="110" height="70" as="geometry" />
        </mxCell>
        <mxCell id="B4AsiJpTMyrp320nneSC-23" style="edgeStyle=orthogonalEdgeStyle;rounded=0;orthogonalLoop=1;jettySize=auto;html=1;" edge="1" parent="1" source="B4AsiJpTMyrp320nneSC-13" target="B4AsiJpTMyrp320nneSC-4">
          <mxGeometry relative="1" as="geometry">
            <mxPoint x="150" y="468" as="sourcePoint" />
            <Array as="points">
              <mxPoint x="260" y="465" />
              <mxPoint x="260" y="630" />
              <mxPoint x="420" y="630" />
              <mxPoint x="420" y="384" />
            </Array>
          </mxGeometry>
        </mxCell>
        <mxCell id="B4AsiJpTMyrp320nneSC-25" value="Konec,&lt;br&gt;P je seřazené pole" style="ellipse;whiteSpace=wrap;html=1;strokeWidth=2;" vertex="1" parent="1">
          <mxGeometry x="130" y="350" width="80" height="60" as="geometry" />
        </mxCell>
        <mxCell id="B4AsiJpTMyrp320nneSC-17" value="" style="shape=waypoint;sketch=0;size=6;pointerEvents=1;points=[];fillColor=default;resizable=0;rotatable=0;perimeter=centerPerimeter;snapToPoint=1;rounded=1;arcSize=14;strokeWidth=2;" vertex="1" parent="1">
          <mxGeometry x="394" y="532.25" width="20" height="20" as="geometry" />
        </mxCell>
        <mxCell id="B4AsiJpTMyrp320nneSC-30" style="edgeStyle=orthogonalEdgeStyle;rounded=0;orthogonalLoop=1;jettySize=auto;html=1;" edge="1" parent="1" source="B4AsiJpTMyrp320nneSC-17" target="B4AsiJpTMyrp320nneSC-13">
          <mxGeometry relative="1" as="geometry">
            <Array as="points">
              <mxPoint x="404" y="465" />
            </Array>
          </mxGeometry>
        </mxCell>
      </root>
    </mxGraphModel>
  </diagram>
</mxfile>
